<?xml version="1.0" standalone="no"?>
<!DOCTYPE svg PUBLIC "-//W3C//DTD SVG 20010904//EN"
 "http://www.w3.org/TR/2001/REC-SVG-20010904/DTD/svg10.dtd">
<svg version="1.0" xmlns="http://www.w3.org/2000/svg"
 width="1024.000000pt" height="1024.000000pt" viewBox="0 0 1024.000000 1024.000000"
 preserveAspectRatio="xMidYMid meet">

<g transform="translate(0.000000,1024.000000) scale(0.100000,-0.100000)"
fill="#000000" stroke="none">
<path d="M2720 7886 c0 -3 8 -21 17 -41 12 -25 19 -32 26 -23 6 9 7 8 3 -5 -7
-22 14 -68 27 -60 6 3 7 1 3 -6 -8 -13 204 -432 216 -425 3 2 10 -1 14 -7 4
-8 3 -9 -4 -5 -17 10 -15 3 15 -59 19 -38 30 -51 36 -42 6 8 7 6 3 -6 -7 -22
650 -1340 664 -1332 6 4 7 -1 3 -11 -5 -13 -3 -15 7 -9 9 5 11 4 6 -4 -9 -14
65 -162 78 -154 5 3 6 1 3 -5 -10 -15 3 -43 16 -35 6 3 7 1 3 -5 -9 -14 45
-123 57 -115 6 3 7 1 3 -5 -10 -16 202 -434 216 -426 6 4 8 3 5 -4 -10 -15 3
-43 16 -35 6 3 7 1 3 -5 -10 -16 142 -314 156 -306 7 4 8 3 4 -4 -9 -14 12
-55 24 -47 5 3 12 0 16 -6 5 -8 3 -9 -6 -4 -8 5 -11 3 -8 -6 3 -8 10 -14 16
-14 6 0 17 -7 24 -15 11 -12 11 -12 -4 -1 -10 7 -18 9 -18 3 0 -15 26 -33 35
-24 5 4 5 1 0 -6 -5 -10 11 -31 50 -68 53 -51 85 -70 69 -41 -4 7 -3 9 2 4 5
-5 9 -14 9 -20 0 -7 8 -11 18 -11 9 1 14 -2 12 -7 -8 -12 54 -42 71 -35 8 3
12 2 9 -4 -20 -33 267 -64 374 -40 75 16 152 50 144 63 -3 6 -1 7 6 3 13 -9
84 32 76 44 -3 4 3 14 13 21 15 13 16 12 3 -4 -30 -38 8 -14 58 37 34 35 51
58 46 67 -5 7 -4 10 3 5 6 -3 20 7 31 23 23 32 27 46 9 35 -7 -4 -8 -3 -4 5 4
6 12 8 18 5 8 -5 9 -1 5 10 -4 9 -3 15 2 12 13 -8 64 82 55 96 -4 6 -3 8 3 5
8 -5 193 297 193 317 0 4 -6 4 -12 0 -8 -4 -10 -3 -5 2 5 5 14 9 20 9 7 0 11
8 11 18 -1 9 3 14 9 10 6 -4 8 0 4 11 -4 10 -3 15 3 11 12 -8 43 52 34 67 -4
6 -3 8 4 4 14 -8 116 170 106 185 -4 7 -3 9 4 6 13 -9 105 149 96 165 -4 6 -3
8 4 5 6 -4 23 17 41 48 34 59 37 70 19 59 -7 -4 -8 -3 -4 5 4 6 12 8 18 5 7
-5 9 -1 5 9 -4 10 -2 16 6 14 7 -1 11 6 11 15 -1 10 3 15 9 11 6 -4 8 0 4 11
-4 10 -3 15 3 11 12 -7 33 32 24 47 -4 6 -3 8 3 5 10 -6 223 346 223 367 0 4
-5 4 -12 0 -7 -4 -8 -3 -4 5 4 6 11 9 16 6 13 -8 31 31 24 52 -4 12 -3 14 3 6
11 -16 48 42 37 59 -5 7 -3 8 6 3 10 -6 12 -4 7 9 -4 10 -3 15 3 11 12 -7 33
32 24 47 -4 6 -3 8 3 5 14 -9 176 269 167 285 -4 7 -3 8 4 4 14 -8 34 27 26
47 -3 8 -1 18 5 22 7 3 8 0 5 -9 -13 -34 6 -13 35 39 34 59 37 70 19 59 -7 -4
-8 -3 -4 5 4 6 11 9 16 6 12 -7 83 123 74 137 -4 7 -3 8 4 4 6 -3 16 2 21 13
14 26 14 34 -1 25 -7 -4 -8 -3 -4 5 4 6 11 9 15 7 12 -8 53 72 45 86 -4 7 -3
8 4 4 6 -3 16 2 21 13 14 26 14 34 -1 25 -7 -4 -8 -3 -4 5 4 6 11 9 15 7 12
-8 53 72 45 86 -4 7 -3 8 4 4 14 -8 46 50 36 66 -4 6 -3 8 3 5 14 -9 166 250
157 265 -4 6 -3 8 3 5 6 -4 13 3 17 16 9 34 7 79 -3 73 -5 -4 -7 2 -4 12 7 27
-54 87 -102 101 -26 7 -176 11 -430 11 -319 0 -402 -3 -450 -15 -72 -19 -161
-66 -157 -84 1 -7 -2 -9 -9 -6 -6 4 -26 -8 -45 -26 -34 -32 -46 -57 -21 -43 7
4 9 3 4 -2 -5 -5 -14 -9 -20 -9 -7 0 -24 -22 -39 -50 -27 -49 -38 -84 -17 -55
9 13 10 13 6 0 -2 -8 -10 -14 -16 -13 -14 4 -84 -134 -75 -149 5 -7 2 -8 -6
-3 -10 6 -12 4 -7 -9 5 -11 3 -15 -5 -10 -8 5 -9 2 -5 -10 4 -9 3 -15 -2 -12
-12 8 -84 -131 -75 -146 4 -6 3 -8 -3 -5 -12 7 -218 -378 -217 -405 0 -9 -3
-15 -7 -12 -12 7 -91 -155 -83 -168 4 -6 3 -8 -3 -5 -13 8 -76 -109 -67 -125
5 -7 3 -8 -6 -3 -10 6 -12 4 -7 -9 4 -10 3 -15 -3 -11 -12 8 -103 -172 -94
-187 4 -6 3 -8 -3 -5 -14 8 -166 -280 -157 -296 4 -6 3 -9 -1 -4 -5 4 -29 -31
-55 -77 -25 -47 -49 -88 -52 -92 -4 -3 -45 71 -93 165 -47 95 -90 169 -95 166
-5 -3 -7 0 -4 8 7 19 -54 140 -66 132 -6 -4 -7 1 -3 11 4 12 3 15 -5 10 -8 -4
-10 -2 -6 8 7 18 -33 97 -47 93 -7 -1 -14 5 -16 13 -4 13 -3 13 7 0 9 -13 10
-12 7 5 -2 11 -9 19 -16 17 -7 -1 -10 2 -7 7 9 14 -5 42 -17 34 -6 -3 -7 -1
-3 5 8 13 -104 243 -115 236 -4 -2 -11 1 -15 7 -4 8 -3 9 4 5 18 -11 15 -1
-18 65 -17 33 -35 57 -40 54 -5 -3 -8 0 -5 7 7 18 -211 444 -225 440 -6 -1 -9
2 -6 7 9 14 -25 81 -37 74 -6 -3 -7 -1 -3 5 9 14 -112 255 -124 247 -5 -3 -12
0 -16 6 -4 8 -3 9 4 5 18 -11 14 10 -5 25 -15 12 -16 12 -8 -1 5 -9 0 -8 -13
4 -25 21 -31 36 -7 16 24 -20 17 5 -8 28 -13 12 -27 19 -32 15 -4 -5 -5 -3 -2
4 9 14 -67 65 -142 95 -55 23 -64 23 -533 26 -263 2 -478 1 -478 -2z m203 -13
c-34 -2 -93 -2 -130 0 -37 2 -9 3 62 3 72 0 102 -1 68 -3z m200 0 c-23 -2 -64
-2 -90 0 -26 2 -7 3 42 3 50 0 71 -1 48 -3z m144 0 c-20 -2 -52 -2 -70 0 -17
2 0 4 38 4 39 0 53 -2 32 -4z m106 0 c-7 -2 -19 -2 -25 0 -7 3 -2 5 12 5 14 0
19 -2 13 -5z m50 0 c-7 -2 -19 -2 -25 0 -7 3 -2 5 12 5 14 0 19 -2 13 -5z
m165 0 c-21 -2 -57 -2 -80 0 -24 2 -7 4 37 4 44 0 63 -2 43 -4z m2730 0 c-21
-2 -55 -2 -75 0 -21 2 -4 4 37 4 41 0 58 -2 38 -4z m270 0 c-43 -2 -113 -2
-155 0 -43 1 -8 3 77 3 85 0 120 -2 78 -3z m200 0 c-21 -2 -57 -2 -80 0 -24 2
-7 4 37 4 44 0 63 -2 43 -4z m120 0 c-10 -2 -28 -2 -40 0 -13 2 -5 4 17 4 22
1 32 -1 23 -4z m95 0 c-7 -2 -21 -2 -30 0 -10 3 -4 5 12 5 17 0 24 -2 18 -5z
m72 -23 c3 -6 -1 -7 -9 -4 -18 7 -21 14 -7 14 6 0 13 -4 16 -10z m-3097 -225
c-3 -3 -9 2 -12 12 -6 14 -5 15 5 6 7 -7 10 -15 7 -18z m131 -255 c11 -24 11
-24 -3 -6 -9 11 -16 24 -16 30 0 12 5 7 19 -24z m-999 -220 c6 -11 8 -20 6
-20 -3 0 -10 9 -16 20 -6 11 -8 20 -6 20 3 0 10 -9 16 -20z m1150 -75 c0 -5
-5 -3 -10 5 -5 8 -10 20 -10 25 0 6 5 3 10 -5 5 -8 10 -19 10 -25z m79 -155
c11 -24 11 -24 -3 -6 -9 11 -16 24 -16 30 0 12 5 7 19 -24z m171 -331 c12 -23
20 -43 18 -45 -3 -2 -14 17 -26 41 -27 56 -20 60 8 4z m104 -205 c3 -8 2 -12
-4 -9 -6 3 -10 10 -10 16 0 14 7 11 14 -7z m591 -24 c-9 -16 -18 -30 -21 -30
-2 0 2 14 11 30 9 17 18 30 21 30 2 0 -2 -13 -11 -30z m-521 -116 c3 -8 2 -12
-4 -9 -6 3 -10 10 -10 16 0 14 7 11 14 -7z m416 -82 c0 -5 -7 -17 -15 -28 -14
-18 -14 -17 -4 9 12 27 19 34 19 19z m-1422 -147 c-3 -3 -9 2 -12 12 -6 14 -5
15 5 6 7 -7 10 -15 7 -18z m2183 -518 c-10 -9 -11 -8 -5 6 3 10 9 15 12 12 3
-3 0 -11 -7 -18z m-91 -157 c-6 -11 -13 -20 -16 -20 -2 0 0 9 6 20 6 11 13 20
16 20 2 0 0 -9 -6 -20z m-1582 -335 c-3 -3 -9 2 -12 12 -6 14 -5 15 5 6 7 -7
10 -15 7 -18z m645 -592 c-13 -2 -33 -2 -45 0 -13 2 -3 4 22 4 25 0 35 -2 23
-4z m144 1 c-3 -3 -12 -4 -19 -1 -8 3 -5 6 6 6 11 1 17 -2 13 -5z"/>
<path d="M7118 7218 c-26 -21 -86 -123 -85 -144 1 -10 -3 -18 -10 -17 -15 3
-76 -105 -67 -119 4 -7 3 -8 -4 -4 -13 8 -46 -50 -37 -65 4 -5 1 -8 -7 -7 -7
2 -12 -5 -12 -14 1 -10 -2 -15 -7 -13 -4 3 -15 -8 -24 -24 -18 -36 -19 -45 -3
-35 7 4 8 3 4 -5 -4 -6 -11 -9 -16 -6 -7 4 -120 -176 -120 -191 0 -3 5 -2 12
2 7 4 8 3 4 -5 -4 -6 -12 -8 -18 -5 -8 5 -9 1 -5 -10 4 -10 3 -15 -3 -11 -12
7 -33 -32 -24 -47 4 -6 3 -8 -3 -5 -14 9 -126 -179 -117 -195 4 -7 3 -8 -4 -4
-6 3 -16 -2 -21 -13 -14 -26 -14 -34 1 -25 7 4 8 3 4 -5 -4 -6 -11 -9 -16 -6
-4 3 -22 -20 -39 -50 -34 -59 -37 -70 -19 -59 7 4 8 3 4 -5 -4 -6 -11 -9 -16
-6 -12 7 -223 -353 -214 -366 4 -8 3 -9 -4 -5 -14 8 -46 -50 -36 -66 4 -6 3
-8 -4 -4 -14 8 -66 -79 -56 -95 4 -7 3 -9 -3 -6 -10 7 -163 -239 -163 -261 0
-14 69 -54 81 -46 5 3 8 0 7 -7 -2 -6 3 -14 11 -17 9 -3 11 0 6 8 -5 9 -4 11
4 6 6 -4 9 -11 6 -15 -7 -12 113 -83 127 -75 6 4 8 3 5 -3 -4 -6 22 -29 59
-52 69 -43 79 -48 68 -30 -4 8 0 8 15 0 24 -13 28 -23 6 -15 -27 11 -16 -4 20
-26 19 -12 40 -18 46 -14 7 4 9 3 6 -3 -9 -14 88 -77 103 -68 6 4 9 1 8 -6 -2
-6 21 -25 51 -40 60 -32 121 -38 174 -15 40 16 100 83 93 103 -3 8 -2 12 3 9
12 -8 53 63 45 77 -4 7 -4 9 1 5 4 -4 14 0 21 10 17 21 18 36 2 26 -7 -4 -8
-3 -4 5 4 6 11 9 16 6 11 -7 92 134 83 147 -3 7 -1 8 5 4 14 -8 36 30 26 46
-4 6 -3 8 3 5 6 -4 27 20 47 52 38 62 44 77 24 65 -7 -4 -8 -3 -4 5 4 6 11 9
16 6 5 -3 14 3 19 14 14 26 14 34 -1 25 -7 -4 -8 -3 -4 5 4 6 11 9 16 6 12 -8
33 33 24 47 -4 7 -3 8 4 4 14 -8 36 30 26 46 -4 7 -3 8 4 4 14 -8 36 30 26 46
-4 6 -3 8 3 5 13 -8 46 50 37 65 -4 6 -3 8 4 4 6 -3 15 1 21 11 7 14 1 26 -29
59 -64 70 -78 170 -36 261 13 28 38 61 55 74 16 12 27 27 24 32 -3 6 -1 7 4 4
6 -4 30 0 54 9 42 15 77 14 156 -2 28 -6 34 -2 58 34 15 23 24 46 19 53 -4 7
-3 10 4 5 13 -8 56 60 46 75 -5 8 -3 9 6 4 10 -6 12 -4 7 9 -4 10 -3 15 3 11
5 -3 14 3 19 14 14 26 14 34 -1 25 -7 -4 -8 -3 -4 5 4 6 11 9 16 6 4 -3 22 20
39 50 34 59 37 70 19 59 -7 -4 -8 -3 -4 5 4 6 11 9 16 6 11 -7 55 68 64 108
17 72 -34 152 -130 208 -49 28 -85 40 -54 18 13 -9 13 -10 0 -6 -8 2 -14 9
-13 15 3 14 -94 75 -107 67 -6 -4 -9 -1 -8 7 2 7 -5 12 -14 12 -10 -1 -15 3
-11 9 4 6 0 8 -10 4 -10 -4 -16 -2 -14 5 1 6 -4 13 -12 16 -9 3 -11 0 -6 -8 5
-9 4 -11 -4 -6 -6 4 -9 11 -6 16 7 11 -64 52 -77 44 -6 -4 -8 -2 -5 3 9 14
-61 56 -75 47 -6 -4 -8 -2 -5 3 9 14 -109 86 -125 77 -7 -4 -8 -3 -4 4 8 13
-23 32 -51 32 -11 0 -26 -6 -35 -12z m39 -4 c-3 -3 -12 -4 -19 -1 -8 3 -5 6 6
6 11 1 17 -2 13 -5z m674 -411 c13 -16 12 -17 -3 -4 -10 7 -18 15 -18 17 0 8
8 3 21 -13z m-274 -589 c-3 -3 -12 -4 -19 -1 -8 3 -5 6 6 6 11 1 17 -2 13 -5z
m-310 -246 c-3 -8 -6 -5 -6 6 -1 11 2 17 5 13 3 -3 4 -12 1 -19z m0 -40 c-3
-8 -6 -5 -6 6 -1 11 2 17 5 13 3 -3 4 -12 1 -19z m-397 -972 c0 -2 -8 -10 -17
-17 -16 -13 -17 -12 -4 4 13 16 21 21 21 13z m-97 -53 c-7 -2 -19 -2 -25 0 -7
3 -2 5 12 5 14 0 19 -2 13 -5z"/>
<path d="M4220 3201 l0 -661 120 0 120 0 -2 658 -3 657 -117 3 -118 4 0 -661z
m83 -648 c-13 -2 -35 -2 -50 0 -16 2 -5 4 22 4 28 0 40 -2 28 -4z m100 0 c-13
-2 -33 -2 -45 0 -13 2 -3 4 22 4 25 0 35 -2 23 -4z"/>
<path d="M4719 3837 c-43 -29 -59 -60 -59 -117 0 -48 24 -95 42 -84 7 4 8 2 4
-4 -10 -17 47 -42 95 -42 103 0 165 98 125 195 -30 72 -138 99 -207 52z m208
-129 c-3 -7 -5 -2 -5 12 0 14 2 19 5 13 2 -7 2 -19 0 -25z"/>
<path d="M1940 3806 c0 -21 45 -114 53 -109 6 3 7 1 3 -6 -10 -16 3 -53 16
-45 7 4 8 2 4 -5 -10 -16 3 -53 16 -45 7 5 8 2 3 -5 -11 -18 156 -446 167
-429 6 9 7 6 3 -9 -4 -14 23 -93 78 -235 46 -117 87 -223 91 -236 4 -12 12
-19 18 -16 7 4 8 2 4 -5 -5 -7 2 -37 14 -67 l23 -55 145 3 146 3 58 155 c32
85 56 161 53 168 -3 7 -1 11 4 8 12 -8 83 187 75 210 -4 13 -3 15 3 6 7 -9 52
100 146 346 75 198 137 362 137 366 0 3 -58 6 -128 6 l-128 0 -18 -50 c-10
-27 -14 -55 -10 -61 4 -7 3 -9 -3 -6 -6 4 -33 -56 -66 -146 -30 -83 -91 -250
-136 -369 -45 -121 -78 -226 -75 -235 4 -14 4 -15 -4 -5 -7 11 -11 8 -16 -13
-4 -14 -4 -31 0 -37 4 -6 3 -8 -3 -5 -6 4 -16 -12 -23 -36 -14 -48 -10 -55
-60 90 -19 56 -37 90 -43 86 -6 -3 -7 -1 -3 6 9 15 -3 53 -15 46 -5 -3 -6 0
-3 8 2 7 -35 121 -84 253 -50 131 -109 292 -133 357 l-42 117 -134 0 c-73 0
-133 -2 -133 -4z m203 -13 c-34 -2 -93 -2 -130 0 -37 2 -9 3 62 3 72 0 102 -1
68 -3z m1040 -10 c-4 -11 -8 -12 -11 -5 -5 17 -203 17 -221 0 -10 -11 -11 -10
-6 5 6 15 22 17 126 17 107 0 118 -2 112 -17z m-914 -178 c0 -5 -4 -3 -9 5 -5
8 -9 22 -9 30 0 16 17 -16 18 -35z m-179 -140 c0 -5 -5 -3 -10 5 -5 8 -10 20
-10 25 0 6 5 3 10 -5 5 -8 10 -19 10 -25z m420 -500 c0 -5 -5 -3 -10 5 -5 8
-10 20 -10 25 0 6 5 3 10 -5 5 -8 10 -19 10 -25z m132 -412 c-40 -2 -103 -2
-140 0 -37 2 -4 3 73 3 77 0 107 -2 67 -3z"/>
<path d="M5500 3775 c-6 -19 -8 -40 -4 -46 4 -7 3 -9 -4 -5 -6 3 -14 -4 -17
-16 -4 -13 -84 -227 -177 -476 -93 -249 -166 -457 -162 -464 4 -6 3 -8 -2 -5
-13 7 -68 -139 -58 -155 5 -7 3 -8 -6 -3 -10 6 -12 3 -8 -13 4 -12 3 -20 -2
-17 -7 4 -20 -16 -20 -31 0 -2 58 -4 129 -4 l129 0 36 101 c21 60 34 111 31
123 -5 17 -4 18 4 6 8 -12 12 -9 17 18 l7 32 263 0 c192 0 264 -3 264 -11 0
-7 21 -70 48 -140 l47 -129 133 0 c72 0 132 2 132 5 0 2 -38 102 -84 222 -46
120 -91 239 -101 265 -10 27 -22 45 -28 41 -6 -3 -7 -1 -3 6 10 16 -3 53 -16
45 -7 -4 -8 -2 -4 5 10 16 -13 83 -26 75 -7 -4 -8 -2 -4 5 10 16 -145 422
-157 414 -6 -4 -7 -1 -3 6 11 17 -33 133 -47 124 -6 -3 -7 -1 -3 6 4 6 4 20 1
31 -6 19 -15 20 -150 20 l-143 0 -12 -35z m293 18 c3 -5 -38 -7 -91 -5 -172 4
-190 8 -50 10 75 1 139 -1 141 -5z m-121 -277 c6 4 8 2 5 -4 -9 -13 104 -323
115 -316 4 3 5 -1 3 -8 -5 -12 14 -76 40 -140 7 -17 -6 -18 -179 -18 -102 0
-186 2 -186 3 0 2 14 42 30 88 17 46 28 89 25 97 -2 7 -1 11 4 8 4 -3 31 61
60 142 70 196 63 180 68 159 3 -9 9 -14 15 -11z m-79 -503 c-7 -2 -21 -2 -30
0 -10 3 -4 5 12 5 17 0 24 -2 18 -5z m85 0 c-10 -2 -26 -2 -35 0 -10 3 -2 5
17 5 19 0 27 -2 18 -5z m75 0 c-7 -2 -19 -2 -25 0 -7 3 -2 5 12 5 14 0 19 -2
13 -5z m20 -180 c-68 -2 -178 -2 -245 0 -68 1 -13 3 122 3 135 0 190 -2 123
-3z m-665 -280 c-10 -2 -28 -2 -40 0 -13 2 -5 4 17 4 22 1 32 -1 23 -4z m115
0 c-7 -2 -19 -2 -25 0 -7 3 -2 5 12 5 14 0 19 -2 13 -5z m44 1 c-3 -3 -12 -4
-19 -1 -8 3 -5 6 6 6 11 1 17 -2 13 -5z m816 -1 c-7 -2 -21 -2 -30 0 -10 3 -4
5 12 5 17 0 24 -2 18 -5z m110 0 c-13 -2 -35 -2 -50 0 -16 2 -5 4 22 4 28 0
40 -2 28 -4z"/>
<path d="M3465 3473 c-45 -12 -114 -46 -110 -53 3 -5 0 -12 -6 -16 -8 -4 -9
-3 -5 4 13 21 -10 13 -32 -11 -12 -13 -19 -27 -15 -32 5 -4 3 -5 -3 -2 -23 13
-74 -75 -88 -150 l-5 -33 78 0 c43 0 93 -3 110 -6 26 -6 31 -4 31 13 0 29 38
73 76 89 44 18 136 18 180 -1 20 -8 40 -12 45 -9 5 3 9 2 8 -3 -1 -4 8 -30 20
-56 13 -27 21 -62 19 -80 l-3 -32 -180 -7 c-181 -6 -261 -20 -311 -53 -14 -9
-22 -21 -18 -27 5 -7 3 -8 -5 -4 -16 11 -48 -20 -74 -69 -24 -48 -34 -154 -18
-211 23 -85 124 -183 174 -169 17 5 18 4 8 -4 -44 -30 226 -37 292 -7 21 9 35
21 32 26 -4 6 1 7 11 3 13 -5 15 -3 9 7 -5 9 -4 11 3 6 12 -7 61 23 62 38 0 5
-10 1 -22 -10 l-23 -19 19 22 c32 38 56 21 56 -39 l0 -38 113 0 112 0 -2 157
c-2 87 -4 244 -5 348 l-3 190 -33 67 c-37 76 -95 131 -127 122 -14 -4 -16 -3
-7 4 10 7 2 14 -30 27 -33 14 -75 19 -178 21 -74 2 -144 0 -155 -3z m58 -10
c-7 -2 -19 -2 -25 0 -7 3 -2 5 12 5 14 0 19 -2 13 -5z m180 0 c-7 -2 -19 -2
-25 0 -7 3 -2 5 12 5 14 0 19 -2 13 -5z m274 -255 c-3 -7 -5 -2 -5 12 0 14 2
19 5 13 2 -7 2 -19 0 -25z m-709 -15 c-10 -2 -28 -2 -40 0 -13 2 -5 4 17 4 22
1 32 -1 23 -4z m719 -140 c-3 -10 -5 -2 -5 17 0 19 2 27 5 18 2 -10 2 -26 0
-35z m-757 -77 c0 -2 -8 -10 -17 -17 -16 -13 -17 -12 -4 4 13 16 21 21 21 13z
m540 -68 c0 -133 -85 -208 -235 -208 -49 0 -70 5 -98 24 -19 13 -37 23 -39 21
-2 -2 -4 21 -6 51 -4 71 17 110 71 135 34 15 66 19 175 19 l132 0 0 -42z m217
-20 c-3 -7 -5 -2 -5 12 0 14 2 19 5 13 2 -7 2 -19 0 -25z m0 -70 c-3 -8 -6 -5
-6 6 -1 11 2 17 5 13 3 -3 4 -12 1 -19z m0 -80 c-2 -13 -4 -3 -4 22 0 25 2 35
4 23 2 -13 2 -33 0 -45z m-237 28 c0 -2 -8 -10 -17 -17 -16 -13 -17 -12 -4 4
13 16 21 21 21 13z m47 -203 c-3 -10 -5 -4 -5 12 0 17 2 24 5 18 2 -7 2 -21 0
-30z m161 -10 c-26 -2 -71 -2 -100 0 -29 2 -8 3 47 3 55 0 79 -1 53 -3z m-521
-19 c-3 -3 -12 -4 -19 -1 -8 3 -5 6 6 6 11 1 17 -2 13 -5z"/>
<path d="M6795 3471 c-33 -8 -95 -39 -95 -47 0 -2 13 2 30 11 16 8 33 15 37
15 4 -1 -8 -9 -27 -19 -19 -11 -39 -17 -43 -14 -5 3 -26 -12 -48 -33 l-39 -38
0 62 0 62 -115 0 -115 0 0 -650 0 -650 120 0 120 0 0 238 1 237 20 -27 c11
-16 25 -28 31 -28 6 0 5 7 -3 18 -11 15 -11 15 1 4 8 -7 15 -18 15 -25 0 -7 8
-11 17 -11 10 1 16 -3 15 -9 -4 -23 77 -41 184 -42 102 0 108 1 175 36 38 19
68 41 66 48 -1 7 2 9 8 6 16 -10 86 69 115 129 55 113 72 288 40 409 -18 70
-62 160 -75 152 -5 -3 -12 0 -16 6 -4 8 -3 9 4 5 18 -11 14 6 -8 32 -11 14
-24 20 -31 16 -7 -4 -9 -3 -6 3 9 15 -39 57 -54 48 -8 -5 -10 -4 -5 3 9 15
-61 44 -88 37 -15 -5 -17 -4 -8 3 11 7 8 11 -10 15 -31 9 -175 7 -213 -2z
m192 -7 c-3 -3 -12 -4 -19 -1 -8 3 -5 6 6 6 11 1 17 -2 13 -5z m-534 -11 c-13
-2 -33 -2 -45 0 -13 2 -3 4 22 4 25 0 35 -2 23 -4z m40 -1266 l92 -3 -97 -2
-98 -2 2 633 3 632 2 -627 3 -627 93 -4z m757 1083 c6 -11 8 -20 6 -20 -3 0
-10 9 -16 20 -6 11 -8 20 -6 20 3 0 10 -9 16 -20z m-311 -11 c28 -11 56 -27
62 -35 6 -8 16 -11 23 -7 6 3 8 3 4 -2 -4 -4 5 -31 20 -59 24 -46 27 -61 27
-156 0 -114 -15 -158 -69 -209 -14 -13 -23 -27 -21 -32 3 -4 0 -11 -6 -15 -8
-4 -9 -3 -5 4 9 15 10 15 -39 -3 -61 -22 -132 -18 -190 9 -101 47 -128 103
-130 263 0 62 2 108 6 101 7 -10 21 20 24 52 0 8 5 17 10 19 6 2 27 18 48 37
20 19 42 34 48 34 5 0 8 3 6 8 -3 4 26 8 63 10 53 2 80 -2 119 -19z m360 -129
c0 -9 -4 -8 -9 5 -5 11 -9 27 -9 35 0 9 4 8 9 -5 5 -11 9 -27 9 -35z m-692
-62 c-3 -8 -6 -5 -6 6 -1 11 2 17 5 13 3 -3 4 -12 1 -19z m490 -20 c-3 -8 -6
-5 -6 6 -1 11 2 17 5 13 3 -3 4 -12 1 -19z m-500 -70 c-2 -13 -4 -3 -4 22 0
25 2 35 4 23 2 -13 2 -33 0 -45z m710 -50 c-3 -7 -5 -2 -5 12 0 14 2 19 5 13
2 -7 2 -19 0 -25z m-444 -395 c-7 -2 -19 -2 -25 0 -7 3 -2 5 12 5 14 0 19 -2
13 -5z"/>
<path d="M7850 3457 c-30 -13 -54 -28 -53 -34 1 -6 -5 -17 -15 -25 -15 -12
-16 -11 -3 5 23 29 -3 19 -34 -13 -16 -16 -32 -30 -37 -30 -4 0 -8 25 -8 55
l0 55 -115 0 -115 0 0 -650 0 -650 120 0 120 0 0 236 c0 186 3 234 13 227 6
-4 17 -8 22 -8 6 0 10 -7 10 -15 0 -8 15 -25 34 -37 91 -61 255 -70 364 -20
32 15 56 31 53 36 -4 5 -1 13 5 17 8 4 9 3 5 -4 -4 -7 -3 -12 2 -12 14 0 33
26 25 34 -4 4 0 4 9 1 19 -8 83 69 72 86 -4 8 -3 9 4 5 29 -18 91 172 92 278
0 74 -20 181 -32 165 -6 -9 -7 -5 -3 12 13 53 -113 244 -147 223 -7 -4 -8 -3
-4 5 5 7 -16 22 -61 43 -60 29 -80 33 -168 35 -87 3 -107 0 -155 -20z m-347
-5 c-10 -6 -13 -150 -16 -643 l-2 -634 -3 643 c-2 606 -1 642 16 642 12 0 13
-3 5 -8z m164 2 c-3 -3 -12 -4 -19 -1 -8 3 -5 6 6 6 11 1 17 -2 13 -5z m320
-160 c-3 -3 -12 -4 -19 -1 -8 3 -5 6 6 6 11 1 17 -2 13 -5z m45 -28 c-3 -5 2
-6 12 -3 9 4 15 3 12 -2 -3 -4 7 -17 22 -28 15 -11 41 -44 57 -74 28 -50 30
-61 30 -159 0 -91 -3 -110 -22 -143 -26 -43 -28 -51 -11 -41 7 4 8 3 4 -5 -4
-6 -11 -9 -15 -6 -5 2 -17 -5 -27 -17 -72 -81 -237 -75 -318 10 -16 17 -33 29
-37 26 -5 -3 -6 3 -2 12 4 11 3 15 -5 10 -6 -3 -14 -1 -18 5 -4 8 -3 9 4 5 15
-9 15 4 1 41 -19 50 -13 186 10 238 25 56 25 59 9 49 -7 -4 -11 -5 -8 -1 3 3
8 5 12 4 4 -1 22 13 41 31 19 19 52 40 73 48 43 15 186 15 176 0z m-335 -993
c-1 -54 -3 -10 -3 97 0 107 2 151 3 98 2 -54 2 -142 0 -195z m270 261 c-3 -3
-12 -4 -19 -1 -8 3 -5 6 6 6 11 1 17 -2 13 -5z m-430 -350 c-3 -3 -12 -4 -19
-1 -8 3 -5 6 6 6 11 1 17 -2 13 -5z m106 -1 c-18 -2 -48 -2 -65 0 -18 2 -4 4
32 4 36 0 50 -2 33 -4z"/>
<path d="M4679 3428 c0 -24 -2 -233 -4 -465 l-3 -423 125 0 c110 0 124 2 119
16 -3 9 -6 218 -6 465 l0 449 -115 0 -115 0 -1 -42z m108 -875 c-20 -2 -52 -2
-70 0 -17 2 0 4 38 4 39 0 53 -2 32 -4z"/>
</g>
</svg>
